Coordinates
version=1
nRows=13
nColumns=36
inDegrees=yes

Units are S.I. units (second, meters, Newtons, ...)
If the header above contains a line with 'inDegrees', this indicates whether rotational values are in degrees (yes) or radians (no).

endheader
time	pelvis_tilt	pelvis_list	pelvis_rotation	pelvis_tx	pelvis_ty	pelvis_tz	hip_flexion_r	hip_adduction_r	hip_rotation_r	knee_angle_r	knee_angle_r_beta	ankle_angle_r	subtalar_angle_r	mtp_angle_r	hip_flexion_l	hip_adduction_l	hip_rotation_l	knee_angle_l	knee_angle_l_beta	ankle_angle_l	subtalar_angle_l	mtp_angle_l	lumbar_extension	lumbar_bending	lumbar_rotation	arm_flex_r	arm_add_r	arm_rot_r	elbow_flex_r	pro_sup_r	arm_flex_l	arm_add_l	arm_rot_l	elbow_flex_l	pro_sup_l
      6.99000000	      2.04305300	      0.72133148	      0.75175468	     -0.18390343	      0.96980860	     -0.60435883	     -0.26289128	     -4.82064298	     -2.78938058	      8.22228862	      0.14350601	      9.33014801	      4.03345534	     -7.49999987	     -0.29769197	     -3.88811247	     -4.19686135	      6.31806074	      0.11027096	      4.32578734	     -1.39359502	     -7.49999987	     -4.15618654	     -1.56425321	      0.06629152	    -16.93605711	     -5.57262754	    -10.51246478	    114.37670884	    106.17094126	    -13.62503014	     -5.31049926	     -4.57797210	    114.17400015	    102.59978032
      7.00000000	      1.95907099	      0.74218348	      0.72720874	     -0.18539000	      0.96969721	     -0.60431623	      0.06416443	     -4.83994012	     -2.68386232	      8.45041338	      0.14748754	      9.23658677	      3.82564771	     -7.49999987	      0.07993880	     -3.88769511	     -4.25556906	      6.66011393	      0.11624092	      4.27854798	     -1.41783767	     -7.49999987	     -4.37120456	     -1.57978948	      0.09847364	    -16.80157328	     -5.59871695	    -10.48426443	    114.43694214	    105.26793073	    -13.42570288	     -5.34334361	     -4.63388909	    114.21809039	    101.73508459
      7.01000000	      1.85032440	      0.77831193	      0.74571917	     -0.18704201	      0.96949430	     -0.60420245	      0.43854206	     -4.86521157	     -2.57086030	      8.71670218	      0.15213515	      9.11492409	      3.42704395	     -7.49999987	      0.57173449	     -3.88163271	     -4.34240273	      7.12261068	      0.12431301	      4.17529495	     -1.55609878	     -7.49999987	     -4.57687652	     -1.63073116	      0.15674452	    -16.70926797	     -5.56505404	    -10.71777819	    114.24115531	    108.09246418	    -13.16591415	     -5.35332475	     -4.84788484	    113.91918356	    103.98344754
      7.02000000	      1.67291765	      0.83396123	      0.79422157	     -0.18886252	      0.96918079	     -0.60416125	      0.95910108	     -4.92375449	     -2.51582328	      9.11135932	      0.15902322	      9.07396236	      3.14750279	     -7.49999987	      1.16497185	     -3.83739250	     -4.21814319	      7.59497762	      0.13255737	      4.01769525	     -1.93966457	     -7.49999987	     -4.74000164	     -1.70169455	      0.10315527	    -16.55446358	     -5.61001190	    -10.64155838	    114.30591270	    107.84395034	    -12.98306918	     -5.33015016	     -4.97103957	    114.10106706	    103.50377841
      7.03000000	      1.36352903	      0.86540593	      0.82774234	     -0.19091555	      0.96866934	     -0.60417660	      1.71061496	     -4.96395235	     -2.41512211	      9.62371380	      0.16796549	      9.09719816	      2.91969816	     -7.49999987	      1.99007590	     -3.83215049	     -4.13346571	      8.22710170	      0.14359001	      4.11909560	     -1.89474807	     -7.49999987	     -4.80159042	     -1.72858888	      0.11129297	    -16.47309193	     -5.68147562	    -10.49443035	    114.58296397	    106.23823953	    -12.76891207	     -5.34179562	     -4.93195861	    114.47211373	    102.10895876
      7.04000000	      1.18003634	      0.89711444	      0.85154505	     -0.19313293	      0.96834390	     -0.60415674	      2.36423809	     -5.00798800	     -2.44936770	     10.18408176	      0.17774576	      9.08887634	      2.71381328	     -7.49999987	      2.70075960	     -3.84026217	     -4.11853123	      8.87663156	      0.15492645	      4.09667944	     -1.99431748	     -7.49999987	     -5.02728665	     -1.76824069	      0.09954251	    -16.27130374	     -5.72814904	    -10.44120539	    114.70921312	    105.41432679	    -12.43890725	     -5.39498401	     -4.95989045	    114.72271480	    101.40863293
      7.05000000	      0.88461564	      0.98480972	      0.90502477	     -0.19558171	      0.96778437	     -0.60410923	      3.21181533	     -5.12088028	     -2.41742511	     10.87219760	      0.18975565	      9.13500013	      2.41268521	     -7.49999987	      3.57840256	     -3.78192515	     -3.90604307	      9.56968682	      0.16702254	      3.88806809	     -2.45028873	     -7.49999987	     -5.15374690	     -1.88757472	      0.01145334	    -16.03835517	     -5.76609808	    -10.50814107	    114.57306042	    107.80700359	    -12.13247766	     -5.44752746	     -5.21308488	    114.81381514	    103.38664258
      7.06000000	      0.56265992	      1.07963011	      0.95390517	     -0.19823661	      0.96709791	     -0.60404137	      4.09326087	     -5.22879550	     -2.25064019	     11.54502436	      0.20149869	      9.16884432	      1.94686247	     -7.49999987	      4.49605398	     -3.71409337	     -3.82181193	     10.26319227	      0.17912650	      3.82487047	     -2.74606972	     -7.49999987	     -5.29210157	     -2.00415907	     -0.07008082	    -15.73426793	     -5.89027401	    -10.41609685	    114.67965539	    107.99079010	    -11.75565052	     -5.61395309	     -5.26082243	    115.07312732	    103.63313078
      7.07000000	      0.21120075	      1.20623641	      1.01959128	     -0.20112246	      0.96633068	     -0.60413468	      5.02463048	     -5.37415013	     -1.99136349	     12.21765719	      0.21323834	      9.11391658	      1.31197686	     -7.49999987	      5.41419616	     -3.55693253	     -3.43748686	     10.86031638	      0.18954828	      3.48501165	     -3.50558185	     -7.49999987	     -5.44191282	     -2.13377841	     -0.17819316	    -15.38765249	     -6.03006319	    -10.28600748	    114.79516372	    107.85890177	    -11.29603361	     -5.76417601	     -5.22752539	    115.38616606	    103.01106705
      7.08000000	     -0.13431664	      1.28025520	      1.02655939	     -0.20424609	      0.96552038	     -0.60411694	      6.02543250	     -5.47007058	     -1.83248852	     12.98605325	      0.22664939	      9.17840123	      1.05022876	     -7.49999987	      6.40087229	     -3.52843581	     -3.52056350	     11.60043202	      0.20246573	      3.64914646	     -3.29754104	     -7.49999987	     -5.65009743	     -2.19408471	     -0.14541096	    -15.03739649	     -6.13379568	    -10.34630708	    114.94866382	    108.09833951	    -10.69104220	     -5.94872293	     -5.13068371	    115.56016347	    103.41527499
      7.09000000	     -0.51429552	      1.36136710	      1.05204254	     -0.20764565	      0.96460447	     -0.60405751	      7.10205574	     -5.56965962	     -1.68973681	     13.79643724	      0.24079325	      9.21018788	      0.69232874	     -7.49999987	      7.43476554	     -3.47441359	     -3.41868924	     12.31327413	      0.21490718	      3.58376012	     -3.51777994	     -7.49999987	     -5.87476830	     -2.27379505	     -0.14114385	    -14.61073267	     -6.24903926	    -10.35499933	    115.03634931	    108.33517129	    -10.00419658	     -6.14263550	     -5.07680644	    115.81768225	    103.36619886
      7.10000000	     -0.93357326	      1.46377472	      1.07364075	     -0.21135338	      0.96351339	     -0.60403236	      8.28290915	     -5.68982496	     -1.47015678	     14.67884842	      0.25619424	      9.13540833	      0.07704233	     -7.49999987	      8.52066502	     -3.35606144	     -3.12232117	     12.99217329	      0.22675620	      3.18066408	     -4.36184637	     -7.49999987	     -6.12330433	     -2.36739126	     -0.21223000	    -14.04566822	     -6.42031391	    -10.21520461	    115.18427474	    107.64753050	     -9.32864013	     -6.35057610	     -5.01885831	    116.17664180	    102.57104395
      7.11000000	     -1.47110947	      1.52238250	      1.06877792	     -0.21537142	      0.96206347	     -0.60397661	      9.67663296	     -5.74864894	     -1.07122879	     15.68237551	      0.27370909	      9.18714273	     -0.43772670	     -7.49999987	      9.85970300	     -3.32642865	     -2.98884640	     13.89655875	      0.24254070	      3.26302623	     -4.50581955	     -7.49999987	     -6.28530211	     -2.40735324	     -0.21995565	    -13.47011261	     -6.56995798	    -10.16069839	    115.27613926	    108.19710897	     -8.56788272	     -6.60901215	     -4.97573564	    116.39857090	    102.77720238
